<?xml version="1.0" standalone="no"?>
<!DOCTYPE svg PUBLIC "-//W3C//DTD SVG 20010904//EN"
 "http://www.w3.org/TR/2001/REC-SVG-20010904/DTD/svg10.dtd">
<svg version="1.0" xmlns="http://www.w3.org/2000/svg"
 width="512.000000pt" height="512.000000pt" viewBox="0 0 512.000000 512.000000"
 preserveAspectRatio="xMidYMid meet">
<metadata>
Created by potrace 1.11, written by Peter Selinger 2001-2013
</metadata>
<g transform="translate(0.000000,512.000000) scale(0.100000,-0.100000)"
fill="#000000" stroke="none">
<path d="M2345 4953 c-179 -17 -447 -77 -612 -139 -222 -81 -493 -235 -678
-382 -38 -31 -126 -113 -195 -182 -304 -304 -512 -667 -621 -1078 -16 -62 -32
-129 -35 -150 -3 -20 -7 -44 -9 -52 -5 -16 -11 -62 -25 -180 -8 -74 -6 -465 3
-506 3 -12 8 -45 12 -75 3 -30 17 -103 31 -164 128 -575 440 -1055 920 -1418
293 -221 730 -401 1079 -442 28 -3 77 -10 110 -14 97 -14 477 -5 585 13 52 9
107 19 122 21 71 13 268 68 355 101 460 170 880 497 1154 899 215 314 350 668
399 1043 29 225 18 574 -24 777 -51 243 -137 482 -244 675 -26 47 -49 89 -51
94 -10 23 -141 208 -195 276 -77 96 -259 278 -356 356 -331 268 -758 455
-1165 510 -27 4 -59 9 -70 11 -26 6 -438 11 -490 6z"/>
</g>
</svg>
